# xmcd CD database file
#
# Track frame offsets:
#	150
#	24079
#	46404
#	67714
#	87391
#	107791
#	128843
#	145415
#	173458
#	192824
#
# Disc length: 2814 seconds
#
# Revision: 0
# Processed by: cddbd v1.5.1PL0 Copyright (c) Steve Scherf et al.
# Submitted via: CDex 1.51
#
DISCID=790afc0a
DTITLE=Vasco Martins -  Sublime Delinght
DYEAR=1997
DGENRE=New Age
TTITLE0=Delights in the (Rhythm)
TTITLE1=Delights in the (Ocean)
TTITLE2=Delights in the (Soul)
TTITLE3=Delights in the (Joy)
TTITLE4=Delights in the (Stars)
TTITLE5=Delights in the (Life)
TTITLE6=Delights in the (Night)
TTITLE7=Delights in the ((Nonuntains and Valleys)
TTITLE8=Delights in the (Melancholy)
TTITLE9=Delights in the (Delights) Itself
EXTD=YEAR: 1997
EXTT0=
EXTT1=
EXTT2=
EXTT3=
EXTT4=
EXTT5=
EXTT6=
EXTT7=
EXTT8=
EXTT9=
PLAYORDER=
